<?xml version="1.0" encoding="UTF-8"?><svg id="Layer_2" xmlns="http://www.w3.org/2000/svg" viewBox="0 0 45.52 31.53"><g id="Layer_1-2"><path d="m45.52,31.53H0V0h45.52v31.53ZM6.31,13.43c0,2.67,0,5.26,0,7.84,0,.39.08.79.17,1.17.88,3.82,4.04,6.34,8,6.35,5.75.01,11.49,0,17.24,0,.57,0,1.15-.03,1.71-.15,4-.9,6.51-4.06,6.51-8.17,0-2.13,0-4.27,0-6.4,0-.19-.02-.38-.03-.64h-.67c-3.22,0-6.44,0-9.66,0-.38,0-.7.01-.96.39-.14.2-.51.31-.78.31-3.14.02-6.28.02-9.42,0-.29,0-.68-.13-.83-.34-.26-.36-.55-.37-.92-.37-3.22,0-6.44,0-9.66,0h-.7Zm0-1.5h33.66c-.08-.58-.11-1.11-.23-1.63-.87-3.83-4.03-6.36-7.98-6.37-5.77-.01-11.53-.01-17.3,0-.72,0-1.46.1-2.16.27-3.45.83-6.11,4.27-5.98,7.72Z" fill="#fff" stroke-width="0"/><path d="m6.31,13.43h.7c3.22,0,6.44,0,9.66,0,.36,0,.66,0,.92.37.15.21.55.34.83.34,3.14.02,6.28.02,9.42,0,.27,0,.65-.12.78-.31.26-.38.58-.4.96-.39,3.22,0,6.44,0,9.66,0h.67c.01.26.03.45.03.64,0,2.13,0,4.27,0,6.4,0,4.11-2.52,7.28-6.51,8.17-.55.12-1.14.15-1.71.15-5.75.01-11.49.02-17.24,0-3.96,0-7.12-2.53-8-6.35-.09-.38-.17-.78-.17-1.17-.02-2.58,0-5.17,0-7.84Z" stroke-width="0"/><path d="m37.15,5.2c-.74-.14-4.63-.27-5.35-.27-2.18,0-4.88-.01-7.71-.02,0,0,0,0,0,0-.3,0-.6,0-.9,0-.3,0-.6,0-.9,0,0,0,0,0,0,0-2.83,0-5.53,0-7.71.02-.72,0-4.61.13-5.35.27-1.75.32-2.85.2-2.8,7.72h33.51c.05-7.52-1.05-7.4-2.8-7.72Z" stroke-width="0"/></g></svg>