<?xml version="1.0" encoding="UTF-8"?><svg id="Layer_2" xmlns="http://www.w3.org/2000/svg" viewBox="0 0 65.55 56.12"><g id="Layer_1-2"><path d="m65.55,56.12c-21.85,0-43.7,0-65.55,0C0,37.41,0,18.71,0,0c21.85,0,43.7,0,65.55,0,0,18.71,0,37.41,0,56.12Zm-31.21-39.76c-.13-.79-.17-1.6-.41-2.34-.81-2.52-3.09-4.18-5.67-4.2-2.65-.03-4.91,1.55-5.86,4.14-2.2,6.06-4.4,12.13-6.58,18.2-.98,2.73.16,5.79,2.68,7.25,2.53,1.47,5.79.91,7.67-1.32.12-.14.24-.28.36-.41,0,.26-.07.46-.14.67-.71,2.02.08,3.68,2.1,4.43,1.19.44,2.37.89,3.57,1.31,1.4.49,2.78,1.12,4.23,1.38,3.79.67,7.08-1.46,8.44-5.24,1.83-5.11,3.66-10.21,5.52-15.31,1.53-4.22-.41-8.43-4.63-9.96-2.12-.77-4.23-1.53-6.35-2.3-1.78-.65-3.53.15-4.22,1.92-.24.61-.47,1.22-.7,1.8Z" fill="#fff" stroke-width="0"/><path d="m34.34,16.36c.22-.58.46-1.19.7-1.8.69-1.78,2.44-2.57,4.22-1.92,2.11.77,4.23,1.53,6.35,2.3,4.22,1.53,6.17,5.74,4.63,9.96-1.85,5.1-3.69,10.2-5.52,15.31-1.36,3.79-4.65,5.92-8.44,5.24-1.45-.26-2.83-.89-4.23-1.38-1.2-.42-2.38-.87-3.57-1.31-2.02-.75-2.81-2.41-2.1-4.43.07-.21.14-.41.14-.67-.12.14-.24.27-.36.41-1.88,2.23-5.14,2.79-7.67,1.32-2.52-1.46-3.66-4.52-2.68-7.25,2.18-6.07,4.38-12.13,6.58-18.2.94-2.59,3.2-4.17,5.86-4.14,2.58.03,4.86,1.68,5.67,4.2.24.75.28,1.56.41,2.34Zm-7.79,23.14c.05.37.05.61.12.84.34,1.21,1.37,2.05,2.58,2.11,1.21.06,2.33-.67,2.77-1.85.72-1.94,1.41-3.89,2.12-5.84,2.19-6.03,4.38-12.05,6.55-18.08.59-1.64-.13-3.09-1.75-3.67-1.49-.53-2.94.18-3.51,1.75-2.87,7.87-5.73,15.75-8.59,23.62-.14.39-.21.81-.29,1.11Z" stroke-width="0"/><path d="m26.55,39.51c.08-.3.14-.72.29-1.11,2.86-7.88,5.72-15.75,8.59-23.62.57-1.57,2.03-2.28,3.51-1.75,1.62.58,2.34,2.03,1.75,3.67-2.17,6.03-4.37,12.05-6.55,18.08-.71,1.95-1.4,3.9-2.12,5.84-.44,1.18-1.56,1.9-2.77,1.85-1.21-.06-2.24-.89-2.58-2.11-.06-.23-.07-.48-.12-.84Zm7.54-8.62c0-.72-.4-1.23-.99-1.39-.6-.16-1.22.08-1.52.69-1.32,2.75-2.63,5.51-3.92,8.28-.12.26-.16.59-.13.88.08.82.68,1.39,1.5,1.48.73.08,1.42-.36,1.73-1.15,1.08-2.77,2.15-5.54,3.22-8.31.07-.18.1-.39.12-.48Zm5.25-14.6c-.01-.97-.61-1.66-1.41-1.77-.85-.12-1.62.4-1.87,1.28-.79,2.85-1.57,5.69-2.35,8.54-.23.83.09,1.54.8,1.78.73.25,1.45-.15,1.75-.97.98-2.74,1.96-5.49,2.94-8.23.09-.24.12-.51.15-.63Z" fill="#fff" stroke-width="0"/><path d="m34.1,30.88c-.02.1-.05.3-.12.48-1.07,2.77-2.14,5.55-3.22,8.31-.31.79-1,1.23-1.73,1.15-.82-.09-1.42-.66-1.5-1.48-.03-.29.01-.62.13-.88,1.29-2.77,2.6-5.53,3.92-8.28.29-.61.91-.86,1.52-.69.6.16.99.67.99,1.39Z" stroke-width="0"/><path d="m39.34,16.28c-.03.12-.06.39-.15.63-.97,2.75-1.95,5.49-2.94,8.23-.3.83-1.02,1.22-1.75.97-.71-.24-1.03-.95-.8-1.78.78-2.85,1.56-5.7,2.35-8.54.24-.88,1.02-1.39,1.87-1.28.8.11,1.4.8,1.41,1.77Z" stroke-width="0"/></g></svg>