<?xml version="1.0" encoding="UTF-8"?><svg id="Layer_2" xmlns="http://www.w3.org/2000/svg" viewBox="0 0 47.02 47.02"><g id="Layer_1-2"><path d="m17.82,0h29.21v47.02h-12.49c.06-.02.11-.06.17-.07,2.83-.36,5.41-2.94,5.36-6.44-.06-4.64-.01-9.27-.01-13.91,0-.16,0-.33,0-.55.41,0,.77,0,1.13,0,2.04,0,3.34-1.28,3.35-3.31,0-2.31,0-4.62,0-6.93,0-.17,0-.34-.04-.5-.11-.7-.62-1.01-1.23-1.19,0-1.33,0-2.63,0-3.93,0-.95-.56-1.53-1.5-1.53-2.05,0-4.1,0-6.15,0-.98,0-1.53.57-1.53,1.55,0,1.3,0,2.6,0,3.92-1.02.24-1.29.93-1.28,1.89.03,2.23,0,4.47,0,6.7,0,2.04,1.29,3.32,3.33,3.33.37,0,.75,0,1.11,0,.02.12.04.17.04.21,0,4.88.02,9.76-.01,14.65-.01,1.82-1.53,3.33-3.36,3.34-5.11.03-10.22.02-15.33,0-1.8,0-3.28-1.51-3.34-3.31-.03-.95-.01-1.9-.01-2.85,0-.09.03-.17.06-.29.89,0,1.76,0,2.63,0,1.1,0,1.64-.55,1.64-1.63,0-1.24,0-2.48,0-3.72,0-.16,0-.32,0-.52.45,0,.83,0,1.21,0,2.63,0,4.4-1.78,4.4-4.41,0-3.99,0-7.99,0-11.98,0-2.06-.9-3.42-2.78-4.22-.05-.02-.1-.05-.16-.09,0-1.54,0-3.07,0-4.6,0-.92-.58-1.48-1.5-1.49-.59,0-1.18,0-1.81,0,0-1.17-.03-2.28,0-3.4.03-.85-.28-1.45-1.1-1.75Z" fill="#fff" stroke-width="0"/><path d="m17.82,0c.81.3,1.13.9,1.1,1.75-.03,1.11,0,2.23,0,3.4.63,0,1.22,0,1.81,0,.92,0,1.49.57,1.5,1.49,0,1.53,0,3.06,0,4.6.06.03.11.06.16.09,1.88.8,2.78,2.16,2.78,4.22,0,3.99,0,7.99,0,11.98,0,2.63-1.77,4.4-4.4,4.41-.38,0-.76,0-1.21,0,0,.19,0,.35,0,.52,0,1.24,0,2.48,0,3.72,0,1.09-.54,1.63-1.64,1.63-.87,0-1.74,0-2.63,0-.02.11-.06.2-.06.29,0,.95-.02,1.9.01,2.85.06,1.8,1.54,3.3,3.34,3.31,5.11.02,10.22.03,15.33,0,1.83,0,3.35-1.52,3.36-3.34.03-4.88.01-9.76.01-14.65,0-.04-.01-.09-.04-.21-.36,0-.74,0-1.11,0-2.03,0-3.32-1.29-3.33-3.33,0-2.23.02-4.47,0-6.7-.01-.96.26-1.65,1.28-1.89,0-1.32,0-2.62,0-3.92,0-.98.55-1.55,1.53-1.55,2.05,0,4.1-.01,6.15,0,.95,0,1.5.58,1.5,1.53,0,1.3,0,2.6,0,3.93.61.19,1.12.5,1.23,1.19.03.16.04.33.04.5,0,2.31,0,4.62,0,6.93,0,2.03-1.31,3.31-3.35,3.31-.36,0-.73,0-1.13,0,0,.22,0,.38,0,.55,0,4.64-.05,9.27.01,13.91.05,3.5-2.53,6.09-5.36,6.44-.06,0-.11.04-.17.07h-16.62c-.08-.03-.16-.07-.25-.09-1.59-.28-2.88-1.05-3.88-2.32-.92-1.16-1.34-2.49-1.33-3.96,0-.93,0-1.86,0-2.85-.93,0-1.82,0-2.7,0-1.1,0-1.63-.53-1.63-1.64,0-1.24,0-2.48,0-3.72,0-.16-.01-.32-.02-.52-.49,0-.93,0-1.37,0-2.4-.03-4.21-1.82-4.22-4.22-.01-4.15-.03-8.29,0-12.44.01-1.82.91-3.14,2.59-3.87.28-.12.34-.27.34-.54-.01-1.39,0-2.78,0-4.18,0-.98.57-1.54,1.54-1.54.58,0,1.15,0,1.78,0,0-1.16.03-2.27,0-3.38-.03-.85.28-1.45,1.09-1.76h.64c.8.33,1.11.93,1.06,1.78-.04.53,0,1.07,0,1.61,0,.58,0,1.16,0,1.73h4.62c0-1.13.03-2.23-.01-3.33-.04-.85.25-1.45,1.04-1.79h.64Zm-3.96,13.86c-2.36,0-4.71,0-7.07,0-.96,0-1.5.54-1.53,1.5,0,.09,0,.18,0,.28,0,3.92,0,7.83,0,11.75,0,1.31.48,1.78,1.81,1.78,4.53,0,9.06,0,13.58,0,1.22,0,1.73-.51,1.73-1.73,0-3.99,0-7.99,0-11.98,0-1.06-.54-1.61-1.6-1.61-2.31,0-4.62,0-6.93,0Zm27.9,3.07h-6.14c-.02.12-.04.22-.05.32,0,1.83,0,3.67,0,5.5,0,.41.19.52.56.52,1.67,0,3.33,0,5,0,.57,0,.63-.06.63-.63,0-1.51,0-3.03,0-4.54,0-.38,0-.76,0-1.18ZM8.24,7.93v3.13h11.2v-3.13h-11.2Zm8.51,24.04h-5.82v3.04h5.82v-3.04Zm23.73-20.51h-3.61v2.66h3.61v-2.66Z" stroke-width="0"/><path d="m9.83,0c-.8.32-1.11.91-1.09,1.76.04,1.11,0,2.22,0,3.38-.63,0-1.2,0-1.78,0-.97,0-1.53.56-1.54,1.54,0,1.39,0,2.78,0,4.18,0,.27-.06.42-.34.54-1.68.73-2.58,2.04-2.59,3.87-.03,4.15-.02,8.29,0,12.44,0,2.4,1.82,4.19,4.22,4.22.44,0,.88,0,1.37,0,0,.19.02.36.02.52,0,1.24,0,2.48,0,3.72,0,1.11.53,1.63,1.63,1.64.88,0,1.77,0,2.7,0,0,.99,0,1.92,0,2.85,0,1.47.41,2.8,1.33,3.96,1,1.26,2.29,2.04,3.88,2.32.09.02.17.06.25.09H0C0,31.35,0,15.67,0,0c3.28,0,6.55,0,9.83,0Z" fill="#fff" stroke-width="0"/><path d="m17.17,0c-.79.34-1.08.94-1.04,1.79.05,1.1.01,2.2.01,3.33h-4.62c0-.58,0-1.15,0-1.73,0-.54-.03-1.07,0-1.61.06-.85-.26-1.45-1.06-1.78h6.7Z" fill="#fff" stroke-width="0"/><path d="m13.86,13.86c2.31,0,4.62,0,6.93,0,1.06,0,1.6.55,1.6,1.61,0,3.99,0,7.99,0,11.98,0,1.22-.52,1.73-1.73,1.73-4.53,0-9.06,0-13.58,0-1.33,0-1.81-.47-1.81-1.78,0-3.92,0-7.83,0-11.75,0-.09,0-.18,0-.28.03-.96.57-1.5,1.53-1.5,2.36,0,4.71,0,7.07,0Zm.33,6.26c.22-.51.4-.92.58-1.34.32-.78.02-1.58-.7-1.89-.72-.31-1.5.02-1.85.8-.46,1.03-.9,2.07-1.34,3.11-.48,1.14.14,2.07,1.38,2.08.39,0,.77,0,1.23,0-.22.52-.41.93-.58,1.35-.32.78-.03,1.58.7,1.89.72.31,1.49-.02,1.84-.8.47-1.06.93-2.12,1.38-3.2.43-1.04-.2-1.98-1.31-2-.41,0-.82,0-1.32,0Z" fill="#fff" stroke-width="0"/><path d="m41.76,16.94c0,.42,0,.8,0,1.18,0,1.51,0,3.03,0,4.54,0,.57-.06.63-.63.63-1.67,0-3.33,0-5,0-.38,0-.56-.11-.56-.52.01-1.83,0-3.67,0-5.5,0-.1.03-.21.05-.32h6.14Z" fill="#fff" stroke-width="0"/><path d="m8.24,7.93h11.2v3.13h-11.2v-3.13Z" fill="#fff" stroke-width="0"/><path d="m16.75,31.97v3.04h-5.82v-3.04h5.82Z" fill="#fff" stroke-width="0"/><path d="m40.48,11.46v2.66h-3.61v-2.66h3.61Z" fill="#fff" stroke-width="0"/><path d="m14.19,20.13c.49,0,.91,0,1.32,0,1.12.02,1.74.97,1.31,2-.45,1.07-.91,2.14-1.38,3.2-.35.79-1.12,1.12-1.84.8-.72-.31-1.02-1.11-.7-1.89.17-.42.36-.84.58-1.35-.46,0-.84,0-1.23,0-1.24,0-1.86-.94-1.38-2.08.44-1.04.89-2.08,1.34-3.11.34-.78,1.12-1.11,1.85-.8.72.31,1.02,1.11.7,1.89-.17.42-.36.84-.58,1.34Z" stroke-width="0"/></g></svg>