<?xml version="1.0" encoding="UTF-8"?><svg id="Layer_1" xmlns="http://www.w3.org/2000/svg" viewBox="0 0 291.43 291.43"><path d="m145.71,291.43C65.37,291.43,0,226.06,0,145.71S65.37,0,145.71,0s145.71,65.37,145.71,145.71-65.37,145.71-145.71,145.71Zm0-271.43c-69.32,0-125.71,56.4-125.71,125.71s56.4,125.71,125.71,125.71,125.71-56.39,125.71-125.71S215.03,20,145.71,20Z" fill="#ab5500" stroke-width="0"/><path d="m145.71,241.19c-52.64,0-95.47-42.83-95.47-95.47s42.83-95.47,95.47-95.47,95.47,42.83,95.47,95.47-42.83,95.47-95.47,95.47Zm0-170.94c-41.61,0-75.47,33.86-75.47,75.47s33.86,75.47,75.47,75.47,75.47-33.86,75.47-75.47-33.86-75.47-75.47-75.47Z" fill="#d16300" stroke-width="0"/><circle cx="145.71" cy="145.71" r="54.35" fill="#dd8c43" stroke-width="0"/></svg>