<?xml version="1.0" encoding="UTF-8"?><svg id="Layer_2" xmlns="http://www.w3.org/2000/svg" viewBox="0 0 31.32 31.32"><g id="Layer_1-2"><path d="m31.32,23.24v8.08H0v-8.81c.58,1,1.48,1.58,2.52,1.99,2.53,1,5.15,1.14,7.81.75,1.5-.22,2.95-.62,4.21-1.51.75-.52,1.15-1.18,1.13-2.15-.05-2.63.03-5.26-.04-7.88-.02-.96-.22-1.94-.51-2.86-.41-1.27-1.19-2.33-2.29-3.19-.39.86-1.06,1.33-1.85,1.59-.69.22-1.41.44-2.13.48-2.28.12-4.54.12-6.21-2.15-.63.88-1.31,1.68-1.79,2.57C.45,10.9.28,11.77,0,12.6c0-4.2,0-8.39,0-12.6h31.32v15.9c-.04-.13-.1-.26-.13-.39-.29-1.24-.87-2.31-1.86-3.15-1.53,1.85-6.48,1.71-7.77-.02-1.25,1.12-1.94,2.52-1.97,4.18-.04,2,.02,4-.03,5.99-.02.83.31,1.37.97,1.76.38.23.79.43,1.21.57,2.43.81,4.89.81,7.33.04.92-.29,1.79-.71,2.25-1.65ZM7.84,8.68c1.13-.06,2.27-.15,3.29-.73.81-.46.84-.96,0-1.34-2.18-1.01-4.41-1.04-6.59,0-.83.39-.82.89-.01,1.34,1.02.58,2.16.67,3.31.73Zm20.45,3.07c-1.2-1.14-4.83-1.1-5.66.04,1.09,1.07,4.59,1.07,5.66-.04Z" fill="#fff" stroke-width="0"/><path d="m0,12.6c.28-.82.45-1.7.86-2.45.48-.9,1.16-1.69,1.79-2.57,1.67,2.26,3.93,2.27,6.21,2.15.72-.04,1.44-.25,2.13-.48.79-.26,1.45-.73,1.85-1.59,1.09.86,1.88,1.92,2.29,3.19.29.92.49,1.9.51,2.86.07,2.63,0,5.26.04,7.88.02.97-.39,1.63-1.13,2.15-1.27.89-2.71,1.29-4.21,1.51-2.66.39-5.28.24-7.81-.75-1.04-.41-1.94-.99-2.52-1.99,0-3.3,0-6.61,0-9.91Zm1.11,8.36c-.34,1.36.5,1.95,1.55,2.39.52.22,1.07.37,1.61.56.4.14.72.02.82-.38.09-.38-.15-.57-.52-.68-.54-.16-1.07-.37-1.6-.58-.55-.21-.85-.56-.75-1.21.06-.36.01-.73,0-1.1,0-.37-.14-.65-.56-.64-.42.01-.54.3-.55.66,0,.33,0,.65,0,.98Z" stroke-width="0"/><path d="m31.32,23.24c-.47.94-1.33,1.36-2.25,1.65-2.44.77-4.89.77-7.33-.04-.42-.14-.82-.35-1.21-.57-.66-.39-.99-.93-.97-1.76.05-2-.01-4,.03-5.99.04-1.67.72-3.06,1.97-4.18,1.29,1.73,6.24,1.87,7.77.02.99.83,1.57,1.9,1.86,3.15.03.13.08.26.13.39v7.34Z" stroke-width="0"/><path d="m7.84,8.68c-1.15-.06-2.29-.15-3.31-.73-.81-.46-.82-.95.01-1.34,2.18-1.03,4.41-1.01,6.59,0,.83.39.81.88,0,1.34-1.02.58-2.16.66-3.29.73Z" stroke-width="0"/><path d="m28.29,11.75c-1.07,1.1-4.57,1.11-5.66.04.83-1.14,4.46-1.18,5.66-.04Z" stroke-width="0"/><path d="m1.11,20.96c0-.33,0-.65,0-.98,0-.36.13-.65.55-.66.42-.01.56.26.56.64,0,.37.05.74,0,1.1-.1.65.2,1,.75,1.21.53.2,1.06.41,1.6.58.37.11.61.31.52.68-.1.4-.41.52-.82.38-.54-.19-1.09-.34-1.61-.56-1.05-.44-1.9-1.03-1.55-2.39Z" fill="#fff" stroke-width="0"/></g></svg>